<svg xmlns="http://www.w3.org/2000/svg" viewBox="0 0 100 100">
<polygon points="50,5 44,33 50,50 56,33" transform="rotate(0 50 50)" fill="#1A6B33"/>
<polygon points="50,5 44,33 50,50 56,33" transform="rotate(30 50 50)" fill="#1A6B33"/>
<polygon points="50,5 44,33 50,50 56,33" transform="rotate(60 50 50)" fill="#1A6B33"/>
<polygon points="50,5 44,33 50,50 56,33" transform="rotate(90 50 50)" fill="#1A6B33"/>
<polygon points="50,5 44,33 50,50 56,33" transform="rotate(120 50 50)" fill="#1A6B33"/>
<polygon points="50,5 44,33 50,50 56,33" transform="rotate(150 50 50)" fill="#1A6B33"/>
<polygon points="50,5 44,33 50,50 56,33" transform="rotate(180 50 50)" fill="#1A6B33"/>
<polygon points="50,5 44,33 50,50 56,33" transform="rotate(210 50 50)" fill="#1A6B33"/>
<polygon points="50,5 44,33 50,50 56,33" transform="rotate(240 50 50)" fill="#1A6B33"/>
<polygon points="50,5 44,33 50,50 56,33" transform="rotate(270 50 50)" fill="#1A6B33"/>
<polygon points="50,5 44,33 50,50 56,33" transform="rotate(300 50 50)" fill="#1A6B33"/>
<polygon points="50,5 44,33 50,50 56,33" transform="rotate(330 50 50)" fill="#1A6B33"/>
<polygon points="50,24 46,41 50,50 54,41" transform="rotate(15 50 50)" fill="#28C840"/>
<polygon points="50,24 46,41 50,50 54,41" transform="rotate(45 50 50)" fill="#28C840"/>
<polygon points="50,24 46,41 50,50 54,41" transform="rotate(75 50 50)" fill="#28C840"/>
<polygon points="50,24 46,41 50,50 54,41" transform="rotate(105 50 50)" fill="#28C840"/>
<polygon points="50,24 46,41 50,50 54,41" transform="rotate(135 50 50)" fill="#28C840"/>
<polygon points="50,24 46,41 50,50 54,41" transform="rotate(165 50 50)" fill="#28C840"/>
<polygon points="50,24 46,41 50,50 54,41" transform="rotate(195 50 50)" fill="#28C840"/>
<polygon points="50,24 46,41 50,50 54,41" transform="rotate(225 50 50)" fill="#28C840"/>
<polygon points="50,24 46,41 50,50 54,41" transform="rotate(255 50 50)" fill="#28C840"/>
<polygon points="50,24 46,41 50,50 54,41" transform="rotate(285 50 50)" fill="#28C840"/>
<polygon points="50,24 46,41 50,50 54,41" transform="rotate(315 50 50)" fill="#28C840"/>
<polygon points="50,24 46,41 50,50 54,41" transform="rotate(345 50 50)" fill="#28C840"/>
<circle cx="50" cy="50" r="4.2" fill="#C25E3A"/>
</svg>
